<svg xmlns="http://www.w3.org/2000/svg" viewBox="0 0 420 220" role="img" aria-labelledby="title desc">
  <title id="title">SpendWise finance illustration</title>
  <desc id="desc">A friendly illustration of a wallet, coins and a rising chart.</desc>
  <defs>
    <linearGradient id="g1" x1="0" x2="1" y1="0" y2="1">
      <stop offset="0" stop-color="#2dd4bf"/><stop offset="1" stop-color="#38bdf8"/>
    </linearGradient>
    <linearGradient id="g2" x1="0" x2="1" y1="0" y2="1">
      <stop offset="0" stop-color="#8b5cf6"/><stop offset="1" stop-color="#ec4899"/>
    </linearGradient>
    <filter id="shadow" x="-20%" y="-20%" width="140%" height="140%"><feDropShadow dx="0" dy="10" stdDeviation="10" flood-opacity=".18"/></filter>
  </defs>
  <circle cx="88" cy="92" r="62" fill="#dff8f2" opacity=".75"/>
  <circle cx="340" cy="58" r="44" fill="#eee6ff" opacity=".9"/>
  <path d="M54 153c64-30 112-17 163-50 45-29 76-43 150-33" fill="none" stroke="url(#g1)" stroke-width="8" stroke-linecap="round"/>
  <path d="M55 154l-1-19m1 19l18-7" stroke="#0f766e" stroke-width="6" stroke-linecap="round"/>
  <g filter="url(#shadow)">
    <rect x="92" y="78" width="148" height="92" rx="24" fill="url(#g1)"/>
    <rect x="114" y="64" width="104" height="38" rx="15" fill="#ffffff" opacity=".92"/>
    <rect x="168" y="103" width="72" height="42" rx="14" fill="#0b625c" opacity=".88"/>
    <circle cx="209" cy="124" r="8" fill="#fff"/>
  </g>
  <g filter="url(#shadow)">
    <circle cx="294" cy="132" r="22" fill="#fbbf24"/><circle cx="327" cy="152" r="18" fill="#f59e0b"/>
    <text x="286" y="141" font-family="Arial,sans-serif" font-size="23" font-weight="700" fill="#fff">₹</text>
    <text x="320" y="159" font-family="Arial,sans-serif" font-size="18" font-weight="700" fill="#fff">₹</text>
  </g>
  <g filter="url(#shadow)">
    <rect x="310" y="25" width="72" height="72" rx="20" fill="url(#g2)"/>
    <path d="M331 74l14-16 10 8 16-22" fill="none" stroke="#fff" stroke-width="6" stroke-linecap="round" stroke-linejoin="round"/>
  </g>
</svg>
